<?xml version="1.0" encoding="UTF-8"?>
<svg id="_图层_2" data-name="图层 2" xmlns="http://www.w3.org/2000/svg" xmlns:xlink="http://www.w3.org/1999/xlink" viewBox="0 0 1040.95 115.63">
  <defs>
    <style>
      .cls-1 {
        fill: url(#_未命名的渐变_5-2);
      }

      .cls-2 {
        fill: #002699;
      }

      .cls-3 {
        fill: url(#_未命名的渐变_5);
      }
    </style>
    <linearGradient id="_未命名的渐变_5" data-name="未命名的渐变 5" x1="-1464.18" y1="49.04" x2="-1374.61" y2="49.04" gradientTransform="translate(1481.56) skewX(-10)" gradientUnits="userSpaceOnUse">
      <stop offset="0" stop-color="#03b5fd"/>
      <stop offset="1" stop-color="#0344ff"/>
    </linearGradient>
    <linearGradient id="_未命名的渐变_5-2" data-name="未命名的渐变 5" x1="-481.89" y1="55.62" x2="-435.39" y2="55.62" xlink:href="#_未命名的渐变_5"/>
  </defs>
  <g id="_图层_1-2" data-name="图层 1">
    <g>
      <path class="cls-2" d="m152.07,72.12l-13.93-50.01h-20.11l20.74,67.57c-1.5,2.31-3.04,4.3-4.64,5.96-1.6,1.67-3.56,2.93-5.9,3.78-2.34.85-5.36,1.28-9.07,1.28h-9.53s-.03.01-.03.03l-1.05,14.69s-1.49.03-1.48.03h14.19c5.65,0,10.58-.75,14.8-2.24,4.22-1.5,7.99-3.65,11.3-6.48,3.31-2.82,6.41-6.2,9.28-10.13,2.87-3.93,5.83-8.33,8.87-13.21l38.21-61.29h-22.23l-29.41,50.01Z"/>
      <g>
        <g>
          <path class="cls-2" d="m22.07,91.57l-22.07-1.87c3.6-13.45,6.72-27.4,9.26-41.48,2.54-14.07,4.46-28.03,5.71-41.48l22.75-1.87c-1.31,14.07-3.32,28.66-5.97,43.35-2.65,14.7-5.91,29.28-9.68,43.35Z"/>
          <path class="cls-2" d="m69.66,91.57c1.31-14.07,3.32-28.65,5.97-43.35,2.65-14.7,5.91-29.28,9.68-43.35l22.07,1.87c-3.6,13.45-6.72,27.41-9.26,41.48-2.54,14.07-4.46,28.03-5.71,41.48l-22.75,1.87Z"/>
        </g>
        <path class="cls-3" d="m101.25,32.32c-13.83,4.48-29.6,7.07-45.96,7.07s-31.2-2.58-43.41-7.07c-.78,5.27-1.65,10.57-2.61,15.9-1.06,5.88-2.23,11.74-3.48,17.55,13.85-4.5,29.64-7.09,46.02-7.09s31.24,2.59,43.47,7.09c.84-5.81,1.79-11.67,2.85-17.55.96-5.32,2.01-10.63,3.13-15.9Z"/>
      </g>
      <path class="cls-2" d="m443.76,21.92h-29.33c-9.84,0-19.22,7.98-20.96,17.81h0s-9.38,51.84-9.38,51.84h18.22l8.14-44.84c.75-4.28,4.83-7.75,9.11-7.75h21.18l3.01-17.06Z"/>
      <path class="cls-2" d="m284.71,37.22c-2-5.14-5.35-8.97-10.04-11.5-4.69-2.53-10.45-3.79-17.28-3.79h-40.37l-16.52,93.7h18.22l4.24-24.05s22.74,0,23.04,0c6.57,0,12.59-1.26,18.05-3.79,5.46-2.53,10.08-6.38,13.86-11.57,3.78-5.18,6.36-11.69,7.74-19.53,1.38-7.84,1.07-14.32-.93-19.47Zm-16.35,20.48c-.65,3.71-1.98,6.91-3.97,9.61-1.99,2.7-4.57,4.78-7.74,6.26-3.17,1.48-6.82,2.21-10.94,2.21h-19.97l2.85-16.14h0s1.06-6,1.06-6h0s2.83-16.03,2.83-16.03h19.72c4.21,0,7.67.72,10.37,2.15,2.7,1.43,4.56,3.52,5.6,6.26,1.03,2.74,1.22,6,.55,9.8l-.33,1.9Z"/>
      <path class="cls-2" d="m296.54,73.61c-1.68,10.03,4.76,18.15,14.39,18.15h53.14l2.55-15.04h-50.09c-2.55,0-4.26-2.15-3.81-4.81l.81-4.8h39.34c11.76,0,23.34-9.58,25.76-21.82,2.52-12.72-5.54-23.18-17.68-23.18h-37.42c-10.09,0-19.71,8.52-21.49,19.02l-5.5,32.48Zm26.04-36.46h34.82c3.81,0,6.64,2.99,6.22,6.95-.46,4.34-4.39,7.97-8.5,7.97h-39.05l1.83-10.78c.39-2.29,2.48-4.14,4.68-4.14Z"/>
      <path class="cls-2" d="m459.21,91.51l15.31-86.84h90l-3.03,17.19h-68.13l-3.01,17.06h59.28l-2.99,16.94h-59.28l-3.23,18.33h68.13l-3.05,17.32h-90Z"/>
      <path class="cls-2" d="m741.47,91.51L757.61,0h19.72l-16.14,91.51h-19.72Z"/>
      <path class="cls-2" d="m891.26,91.51l-19.98-69.4h21.49l12.65,49.91,29.31-49.91h21.48l-43.47,69.4h-21.48Z"/>
      <g>
        <path class="cls-2" d="m1013.57,70.05c-2.89,2.35-6.19,4.15-9.6,5.22l-2.5.78c-2.48.78-5,1.17-7.49,1.17-2.75,0-5.36-.48-7.76-1.42-8.48-3.34-13.04-12.08-11.33-21.74l2.08-11.82,10.96-3.26c4.14-1.23,8.31-1.86,12.38-1.86s8.2.65,11.98,1.94l4.7,1.6,1.08.37c.2.08.42.18.65.29l3.14,1.1-.59,3.32h-.01s0,0,0,.02c-.33,1.82-1.75,3.46-3.53,4.26-1.08.48-2.04.53-2.88.37l-.07.08s20.98,8.52,21.94,3.04l4.22-23.93-6.8-2.3h0l-13.66-4.66c-5.41-1.84-11.17-2.78-17.12-2.78s-11.77.89-17.69,2.65l-23.72,7.05-4.99,28.31c-1.21,6.85-.15,13.52,3.06,18.95,6.88,11.63,18.01,17.66,30.92,17.66,4.35,0,8.74-.69,13.07-2.04l2.5-.78c11.36-3.56,21.4-11.37,27.87-21.61h-20.82Z"/>
        <path class="cls-1" d="m1037.89,46.91s-22.87,7.87-46.49,0l-3.07,17.41s24.21-5.45,46.49,0l3.07-17.41Z"/>
      </g>
      <path class="cls-2" d="m645.82,50.51c1.08-6.4.93-11.7-.46-15.91-1.39-4.21-4.04-7.34-7.95-9.4-3.91-2.06-9.02-3.09-15.34-3.09-.23,0-.46.02-.68.02v-.02s-46.21,0-46.21,0l-2.47,14.59h0l-9.63,54.74h18.47s8.55-49.9,8.55-49.9c0,0,22.14-.02,22.35-.02,2.44,0,4.61.29,6.49.86,1.88.57,3.4,1.47,4.54,2.69,1.14,1.23,1.92,2.83,2.35,4.8.42,1.97.41,4.32-.05,7.03l-5.86,34.54,18.91.05s.01-.07.02-.09l6.98-40.89Z"/>
      <path class="cls-2" d="m865.78,76.55h-6.57c-1.52,0-2.51-.46-2.99-1.38-.48-.92-.58-2.16-.31-3.74l5.26-31.25c1.68-9.99-4.76-18.08-14.39-18.08h-53.14l-2.55,14.98h48.59c2.55,0,4.26,2.15,3.81,4.79l-.81,4.78h-37.84c-11.76,0-23.34,9.54-25.76,21.74-2.52,12.67,5.54,23.09,17.68,23.09h66.49l2.54-14.94Zm-28.18-.04h-37.3c-3.81,0-6.64-2.98-6.22-6.92.46-4.33,4.39-7.94,8.5-7.94h37.55l-2.53,14.86Z"/>
      <path class="cls-2" d="m727.88,91.49h-41.79c-18.35,0-30.65-15.56-27.42-34.69,3.24-19.13,20.8-34.69,39.15-34.69h41.79l-3.04,17.97h-41.79c-8.84,0-17.31,7.5-18.87,16.72-1.56,9.22,4.37,16.72,13.21,16.72h41.79l-3.04,17.97Z"/>
    </g>
  </g>
</svg>